<?xml version="1.0" encoding="iso-8859-1"?>
<!-- Generator: Adobe Illustrator 19.0.0, SVG Export Plug-In . SVG Version: 6.00 Build 0)  -->
<svg version="1.1" id="Capa_1" xmlns="http://www.w3.org/2000/svg" xmlns:xlink="http://www.w3.org/1999/xlink" x="0px" y="0px"
	 viewBox="0 0 494.933 494.933" style="enable-background:new 0 0 494.933 494.933;" xml:space="preserve">
<g>
	<g>
		<g>
			<path d="M358.408,0h-307.2c-4.713,0-8.533,3.821-8.533,8.533v25.6h-25.6c-4.713,0-8.533,3.821-8.533,8.533V486.4
				c0,4.713,3.821,8.533,8.533,8.533h307.2c4.713,0,8.533-3.821,8.533-8.533v-25.6h25.6c4.713,0,8.533-3.821,8.533-8.533V8.533
				C366.942,3.821,363.121,0,358.408,0z M315.742,477.867H25.608V51.2h290.133V477.867z M349.875,443.733h-17.067V42.667
				c0-4.713-3.821-8.533-8.533-8.533H59.742V17.067h290.133V443.733z"/>
			<path d="M76.846,153.692h187.725c4.713,0,8.533-3.821,8.533-8.533s-3.821-8.533-8.533-8.533H76.846
				c-4.713,0-8.533,3.821-8.533,8.533S72.133,153.692,76.846,153.692z"/>
			<path d="M76.846,196.383h187.725c4.713,0,8.533-3.821,8.533-8.533c0-4.713-3.821-8.533-8.533-8.533H76.846
				c-4.713,0-8.533,3.821-8.533,8.533C68.312,192.563,72.133,196.383,76.846,196.383z"/>
			<path d="M76.846,239.075h187.725c4.713,0,8.533-3.821,8.533-8.533s-3.821-8.533-8.533-8.533H76.846
				c-4.713,0-8.533,3.821-8.533,8.533S72.133,239.075,76.846,239.075z"/>
			<path d="M76.846,281.771h85.263c4.713,0,8.533-3.821,8.533-8.533c0-4.713-3.821-8.533-8.533-8.533H76.846
				c-4.713,0-8.533,3.821-8.533,8.533C68.312,277.95,72.133,281.771,76.846,281.771z"/>
			<path d="M268.171,391.992c-3.458-1.65-7.479-0.75-9.946,1.942c-0.137-0.083-0.275-0.158-0.417-0.233
				c-3.25-1.671-7.204-1.087-9.833,1.446l-3.108,3.004c0.271-1.787,0.746-3.567,1.421-5.317c1.637-4.242-0.342-9.025-4.5-10.871
				c-4.154-1.862-9.033-0.108-11.079,3.95l-5.729,11.346c1.179-15.2,3.588-30.433,7.188-45.429c0.937-3.9-0.971-7.929-4.583-9.675
				c-3.617-1.746-7.95-0.742-10.433,2.425c-21.642,27.65-37.171,57.329-46.158,88.208c-1.317,4.525,1.283,9.258,5.808,10.575
				c0.796,0.233,1.596,0.346,2.388,0.346c3.696,0,7.104-2.425,8.188-6.154c4.975-17.088,12.125-33.813,21.358-50.008
				c-0.729,6.9-1.221,13.808-1.471,20.696c-0.262,7.362-0.121,15.875,4.971,23.688c1.667,2.55,4.517,3.988,7.621,3.858
				c3.046-0.167,5.771-1.95,7.146-4.675l5.242-10.379c1.258,1.675,3.104,2.846,5.204,3.254c2.754,0.525,5.546-0.308,7.546-2.242
				l2.933-2.829c0.233,0.558,0.479,1.108,0.742,1.658c1.421,2.958,4.412,4.842,7.696,4.842c0.004,0,0.012,0,0.021,0
				c3.287-0.008,6.279-1.904,7.692-4.879l8.15-17.183C274.246,399.096,272.429,394.008,268.171,391.992z"/>
			<path d="M460.8,110.888h-0.025v-25.55c0-9.413-7.654-17.067-17.067-17.067h-34.133c-9.413,0-17.067,7.654-17.067,17.067v298.646
				c0,1.846,0.6,3.642,1.704,5.117l25.6,34.154c1.612,2.15,4.142,3.417,6.829,3.417c2.687,0,5.217-1.267,6.829-3.417l25.6-34.154
				c1.104-1.475,1.704-3.271,1.704-5.117V127.954h0.021c4.704,0,8.529,3.829,8.529,8.533v85.338c0,4.713,3.821,8.533,8.533,8.533
				c4.713,0,8.533-3.821,8.533-8.533v-85.337C486.392,122.371,474.908,110.888,460.8,110.888z M443.708,381.142l-17.067,22.767
				l-17.067-22.767V127.933l34.133,0.014V381.142z M443.708,110.88l-34.133-0.014V85.338h34.133V110.88z"/>
		</g>
	</g>
</g>
<g>
</g>
<g>
</g>
<g>
</g>
<g>
</g>
<g>
</g>
<g>
</g>
<g>
</g>
<g>
</g>
<g>
</g>
<g>
</g>
<g>
</g>
<g>
</g>
<g>
</g>
<g>
</g>
<g>
</g>
</svg>
